<svg width="126" height="47" viewBox="0 0 126 47" fill="none" xmlns="http://www.w3.org/2000/svg">
<g filter="url(#filter0_d)">
<path d="M32.563 35.147C32.941 35.147 32.941 35.156 32.941 35.408V36.704C32.941 37.541 32.896 37.631 32.482 37.685L32.284 37.712C32.212 37.766 32.212 37.973 32.284 38.027C32.716 38.009 33.157 38 33.607 38C34.021 38 34.462 38.009 34.912 38.027C34.984 37.973 34.984 37.766 34.912 37.712L34.696 37.676C34.282 37.604 34.228 37.541 34.228 36.704V33.356C34.228 32.519 34.282 32.438 34.696 32.375L34.876 32.348C34.948 32.294 34.948 32.087 34.876 32.033C34.462 32.051 34.048 32.06 33.607 32.06C33.175 32.06 32.734 32.051 32.239 32.033C32.167 32.087 32.167 32.294 32.239 32.348L32.482 32.384C32.896 32.447 32.941 32.519 32.941 33.356V34.4C32.941 34.661 32.941 34.67 32.563 34.67H30.691C30.322 34.67 30.313 34.661 30.313 34.4V33.356C30.313 32.519 30.367 32.429 30.754 32.375L30.943 32.348C31.015 32.294 31.015 32.087 30.943 32.033C30.547 32.051 30.097 32.06 29.692 32.06C29.26 32.06 28.792 32.051 28.351 32.033C28.279 32.087 28.279 32.294 28.351 32.348L28.567 32.375C28.981 32.429 29.026 32.519 29.026 33.356V36.704C29.026 37.541 28.981 37.631 28.567 37.685L28.351 37.712C28.279 37.766 28.279 37.973 28.351 38.027C28.81 38.009 29.26 38 29.692 38C30.097 38 30.547 38.009 31.06 38.027C31.132 37.973 31.132 37.766 31.06 37.712L30.772 37.676C30.367 37.622 30.313 37.541 30.313 36.704V35.408C30.313 35.156 30.322 35.147 30.691 35.147H32.563ZM44.224 31.916C42.343 31.916 41.011 33.293 41.011 35.075C41.011 36.956 42.325 38.144 44.134 38.144C46.069 38.144 47.383 36.965 47.383 35.003C47.383 33.176 46.096 31.916 44.224 31.916ZM45.943 35.12C45.943 36.578 45.484 37.73 44.305 37.73C42.838 37.73 42.451 35.966 42.451 34.868C42.451 33.365 43.045 32.33 44.152 32.33C45.268 32.33 45.943 33.581 45.943 35.12ZM55.1663 36.704C55.1663 37.541 55.1123 37.622 54.7073 37.667L54.3023 37.712C54.2303 37.766 54.2303 37.973 54.3023 38.027C54.9323 38.009 55.4003 38 55.8323 38C56.2373 38 56.6873 38.009 57.2723 38.027C57.3353 37.973 57.3353 37.766 57.2723 37.712L56.9123 37.667C56.5073 37.613 56.4533 37.541 56.4533 36.704V32.735C56.4533 32.501 56.4803 32.474 56.6963 32.474H57.2363C57.9113 32.474 58.0373 32.897 58.1903 33.473C58.2353 33.545 58.4783 33.527 58.5233 33.446C58.5053 32.933 58.5683 32.204 58.6583 31.898C58.6403 31.871 58.5773 31.835 58.5233 31.835C58.4693 31.835 58.4423 31.844 58.4063 31.862C58.3253 32.051 58.1903 32.06 57.5963 32.06H54.2483C53.5643 32.06 53.5373 32.024 53.4923 31.871C53.4563 31.844 53.4113 31.835 53.3663 31.835C53.3213 31.835 53.2763 31.853 53.2403 31.88C53.1773 32.231 53.1323 32.789 52.9433 33.41C52.9973 33.527 53.1683 33.545 53.2763 33.491C53.5463 32.834 53.7353 32.474 54.3923 32.474H54.9503C55.1663 32.474 55.1663 32.519 55.1663 32.735V36.704ZM66.3851 32.825C66.3851 32.492 66.3851 32.474 66.6821 32.474H67.4021C67.8431 32.474 68.1131 32.582 68.2841 32.753C68.4011 32.879 68.5271 33.149 68.6261 33.464C68.7161 33.545 68.9231 33.527 68.9591 33.428C68.9141 32.825 68.8511 32.177 68.8421 32.033C68.7251 32.051 68.2121 32.06 67.6361 32.06H65.7281C65.2961 32.06 64.8551 32.051 64.4321 32.033C64.3421 32.087 64.3331 32.294 64.4141 32.348L64.6391 32.393C65.0441 32.474 65.0981 32.528 65.0981 33.347V36.704C65.0981 37.532 65.0441 37.586 64.6391 37.649L64.2161 37.712C64.1441 37.757 64.1441 37.973 64.2161 38.027C64.8911 38.009 65.3321 38 65.7641 38H66.9341C67.6721 38 68.5361 38.009 69.0131 38.027C69.1391 37.784 69.3551 37.055 69.3911 36.587C69.3551 36.479 69.1301 36.443 69.0581 36.542C68.5631 37.559 68.2571 37.586 67.4741 37.586C66.8171 37.586 66.6461 37.514 66.5291 37.352C66.4211 37.199 66.3851 36.911 66.3851 36.497V35.426C66.3851 35.156 66.3941 35.147 66.6371 35.147H67.2581C67.7261 35.147 67.8341 35.219 67.9241 35.651L67.9691 35.876C68.0321 35.957 68.2571 35.948 68.3021 35.867C68.2841 35.579 68.2751 35.255 68.2751 34.913C68.2751 34.571 68.2841 34.247 68.3021 33.959C68.2571 33.878 68.0321 33.878 67.9691 33.95L67.9241 34.175C67.8341 34.607 67.7261 34.67 67.2581 34.67H66.6371C66.3941 34.67 66.3851 34.652 66.3851 34.4V32.825ZM77.12 33.356C77.12 32.519 77.174 32.447 77.579 32.384L77.813 32.348C77.885 32.294 77.885 32.087 77.813 32.033C77.363 32.051 76.913 32.06 76.481 32.06C76.049 32.06 75.599 32.051 75.131 32.033C75.023 32.087 75.023 32.294 75.113 32.348L75.374 32.384C75.779 32.438 75.833 32.519 75.833 33.356V36.704C75.833 37.541 75.779 37.613 75.374 37.667L75.032 37.712C74.96 37.766 74.978 37.973 75.059 38.027C75.617 38.009 76.067 38 76.481 38H77.687C78.425 38 79.289 38.009 79.766 38.027C79.892 37.784 80.108 37.037 80.153 36.569C80.09 36.461 79.883 36.425 79.811 36.515C79.28 37.559 79.028 37.586 78.209 37.586C77.552 37.586 77.39 37.514 77.273 37.361C77.156 37.217 77.12 36.929 77.12 36.506V33.356ZM89.7647 36.317C89.7647 35.327 89.0537 34.805 88.4957 34.508L87.9017 34.193C87.4517 33.959 87.0827 33.581 87.0827 33.167C87.0827 32.717 87.4067 32.33 88.0007 32.33C88.6487 32.33 89.0357 32.987 89.1887 33.446C89.2697 33.536 89.4947 33.527 89.5397 33.419C89.5397 32.816 89.4497 32.33 89.3777 32.132C89.2697 32.114 89.1887 32.096 89.0717 32.06C88.7117 31.952 88.3427 31.916 88.0457 31.916C86.7407 31.916 85.9487 32.618 85.9577 33.635C85.9577 34.526 86.6687 35.066 87.3167 35.39C87.8567 35.66 88.5407 36.092 88.5407 36.821C88.5407 37.271 88.2347 37.73 87.5687 37.73C86.8037 37.73 86.2007 36.902 86.0207 36.317C85.9487 36.218 85.7417 36.227 85.6787 36.344C85.6787 36.956 85.7957 37.604 85.9667 37.802C86.1557 37.91 86.6687 38.144 87.4967 38.144C88.8557 38.144 89.7647 37.424 89.7647 36.317Z" fill="white"/>
<path d="M10.425 8.1C10.425 5.775 10.575 5.575 11.7 5.4L12.35 5.3C12.55 5.15 12.55 4.575 12.35 4.425C11.1 4.475 9.85 4.5 8.65 4.5C7.45 4.5 6.2 4.475 4.9 4.425C4.6 4.575 4.6 5.15 4.85 5.3L5.575 5.4C6.7 5.55 6.85 5.775 6.85 8.1V17.4C6.85 19.725 6.7 19.925 5.575 20.075L4.625 20.2C4.425 20.35 4.475 20.925 4.7 21.075C6.25 21.025 7.5 21 8.65 21H12C14.05 21 16.45 21.025 17.775 21.075C18.125 20.4 18.725 18.325 18.85 17.025C18.675 16.725 18.1 16.625 17.9 16.875C16.425 19.775 15.725 19.85 13.45 19.85C11.625 19.85 11.175 19.65 10.85 19.225C10.525 18.825 10.425 18.025 10.425 16.85V8.1ZM24.1957 14.35C24.1957 17.075 24.7457 18.925 26.0457 20C27.3957 21.1 29.0957 21.4 30.9957 21.4C33.0207 21.4 34.8457 20.775 35.9457 19.6C37.3207 18.075 37.5457 15.925 37.5457 13.575V10.775C37.5457 8.75 37.6457 6.85 37.9207 6.2C38.1457 5.675 38.6207 5.525 39.2707 5.375L39.7207 5.275C39.9207 5.075 39.8707 4.575 39.7207 4.425C38.7707 4.475 37.8457 4.5 36.9207 4.5C35.8957 4.5 34.9207 4.475 33.5707 4.425C33.4207 4.575 33.3707 5.075 33.5707 5.275L34.2457 5.4C34.9207 5.525 35.4707 5.675 35.6957 6.2C35.9707 6.85 36.0707 8.75 36.0707 10.775V13.8C36.0707 17.225 35.0957 20.025 31.8957 20.025C28.0957 20.025 27.7707 16.8 27.7707 13.875V8.1C27.7707 5.775 27.9207 5.575 29.0457 5.375L29.6457 5.275C29.8457 5.125 29.8457 4.575 29.6457 4.425C28.4457 4.475 27.2207 4.5 25.9957 4.5C24.7957 4.5 23.5457 4.475 22.3457 4.425C22.0707 4.575 22.0957 5.125 22.2957 5.275L22.9207 5.4C24.0457 5.625 24.1957 5.775 24.1957 8.1V14.35ZM43.4266 20.25C43.2016 20.4 43.2766 20.95 43.5266 21.075C44.2766 21.025 45.3266 21 46.1516 21C47.2016 21 48.3266 21.025 49.4266 21.075C49.7016 20.975 49.7266 20.375 49.5016 20.2L48.8516 20.125C48.3266 20.075 48.0516 19.95 48.0516 19.8C48.0516 19.65 48.1016 19.475 48.2766 19.125C49.1016 17.55 50.2766 15.65 51.2516 14.225C51.6266 14.7 53.5266 17.625 53.9016 18.3C54.5266 19.35 54.6266 19.575 54.6266 19.775C54.6266 19.925 54.3266 20.05 53.7016 20.125L53.0266 20.2C52.7766 20.325 52.8766 20.975 53.1016 21.075C54.4516 21.025 55.5766 21 57.3016 21C59.3266 21 60.1016 21.025 61.2016 21.075C61.4516 20.9 61.4516 20.375 61.2766 20.2L60.5016 20.1C59.5516 19.975 58.9266 19.625 58.0516 18.3C57.1516 16.95 55.9266 15.075 54.0516 12.175C53.8016 11.8 53.7016 11.525 53.7016 11.4C53.7016 11.275 53.9516 10.9 54.2016 10.55C55.3766 8.95 56.4766 7.3 57.6766 6.075C58.1266 5.625 58.5766 5.525 59.1016 5.45L60.1516 5.3C60.3266 5.075 60.3016 4.55 60.0516 4.425C59.2516 4.475 58.2266 4.5 57.0266 4.5C55.8516 4.5 55.0516 4.475 54.2766 4.425C54.0016 4.55 54.0016 5.125 54.2016 5.3L55.2016 5.475C55.5266 5.525 55.7016 5.65 55.7016 5.725C55.7016 5.85 55.7016 6.025 55.4266 6.475C54.6516 7.8 53.8266 9.025 52.9016 10.425C52.1266 9.3 51.2266 7.925 50.5516 6.75C50.2516 6.225 50.1516 6 50.1516 5.775C50.1516 5.6 50.6016 5.475 51.0016 5.4L51.5516 5.3C51.7266 5.1 51.7266 4.55 51.4516 4.425C50.6766 4.475 49.6766 4.5 47.6516 4.5C46.1266 4.5 44.5516 4.475 43.7516 4.425C43.5016 4.575 43.5016 5.1 43.7266 5.3L44.1516 5.375C45.2766 5.575 45.8016 5.9 46.3766 6.725C47.5516 8.4 49.1266 10.875 49.9516 12.1C50.2766 12.55 50.4016 12.875 50.4016 12.975C50.4016 13.125 50.2766 13.425 50.0516 13.75C48.9766 15.35 47.6266 17.3 46.9016 18.25C46.0766 19.375 45.5016 19.975 44.0016 20.175L43.4266 20.25ZM66.8275 14.35C66.8275 17.075 67.3775 18.925 68.6775 20C70.0275 21.1 71.7275 21.4 73.6275 21.4C75.6525 21.4 77.4775 20.775 78.5775 19.6C79.9525 18.075 80.1775 15.925 80.1775 13.575V10.775C80.1775 8.75 80.2775 6.85 80.5525 6.2C80.7775 5.675 81.2525 5.525 81.9025 5.375L82.3525 5.275C82.5525 5.075 82.5025 4.575 82.3525 4.425C81.4025 4.475 80.4775 4.5 79.5525 4.5C78.5275 4.5 77.5525 4.475 76.2025 4.425C76.0525 4.575 76.0025 5.075 76.2025 5.275L76.8775 5.4C77.5525 5.525 78.1025 5.675 78.3275 6.2C78.6025 6.85 78.7025 8.75 78.7025 10.775V13.8C78.7025 17.225 77.7275 20.025 74.5275 20.025C70.7275 20.025 70.4025 16.8 70.4025 13.875V8.1C70.4025 5.775 70.5525 5.575 71.6775 5.375L72.2775 5.275C72.4775 5.125 72.4775 4.575 72.2775 4.425C71.0775 4.475 69.8525 4.5 68.6275 4.5C67.4275 4.5 66.1775 4.475 64.9775 4.425C64.7025 4.575 64.7275 5.125 64.9275 5.275L65.5525 5.4C66.6775 5.625 66.8275 5.775 66.8275 8.1V14.35ZM89.2084 17.4C89.2084 19.7 89.0584 19.875 87.9334 20.075L87.2584 20.2C87.0584 20.325 87.0584 20.925 87.2584 21.075C88.5584 21.025 89.6584 21 90.9084 21C92.1084 21 93.2584 21.025 94.5834 21.075C94.7584 20.925 94.7584 20.325 94.5834 20.2L93.9084 20.075C92.7834 19.875 92.6334 19.7 92.6334 17.4V14.325C92.6334 13.825 92.6834 13.775 93.5584 13.775C94.1834 13.775 94.5834 13.975 94.8834 14.65C95.4584 15.975 96.0334 17.2 96.8334 18.525C97.9334 20.325 99.3834 21.15 101.683 21.15C102.458 21.15 103.258 21.1 103.658 20.925C103.783 20.775 103.783 20.4 103.558 20.275C103.183 20.25 102.533 20.1 101.883 19.575C100.683 18.55 99.6584 16.675 98.0084 13.325C97.8834 13.05 97.8834 12.9 98.1334 12.775C99.2834 12.2 100.783 11.25 100.783 9.025C100.783 7.425 100.033 6.175 98.5834 5.325C97.6334 4.75 95.8084 4.425 93.6834 4.425C91.3084 4.425 89.3584 4.525 87.4834 4.65C87.1834 4.775 87.1834 5.4 87.4334 5.525L88.1084 5.625C89.1584 5.775 89.2084 6.05 89.2084 8.55V17.4ZM92.6334 6.85C92.6334 5.65 92.6834 5.575 93.7084 5.575C95.6584 5.575 96.9834 7.025 96.9834 9.275C96.9834 10.75 96.5084 11.55 96.0834 11.975C95.6084 12.45 95.0834 12.675 94.1834 12.675C92.7084 12.675 92.6334 12.6 92.6334 11.725V6.85ZM114.933 15.65C114.933 14.225 115.108 13.6 115.758 12.425L117.333 9.575C118.533 7.4 119.133 6.5 119.508 6.025C119.783 5.675 120.358 5.5 120.808 5.425L121.458 5.3C121.658 5.125 121.658 4.525 121.358 4.425C120.633 4.475 119.858 4.5 118.908 4.5C118.008 4.5 117.108 4.475 116.108 4.425C115.858 4.55 115.883 5.175 116.083 5.3L116.558 5.4C117.158 5.5 117.558 5.65 117.558 5.8C117.558 6.1 117.258 6.85 116.358 8.625C115.708 9.9 114.933 11.525 114.208 12.75C113.908 12.125 113.333 10.975 112.958 10.15L111.783 7.475C111.258 6.3 111.133 5.925 111.133 5.725C111.133 5.7 111.283 5.6 111.733 5.5L112.583 5.3C112.808 5.1 112.758 4.525 112.533 4.425C111.683 4.475 110.408 4.5 108.883 4.5C107.408 4.5 106.483 4.475 105.358 4.425C105.058 4.5 105.033 5.1 105.258 5.3L106.108 5.45C106.983 5.6 107.208 6 107.708 7.025L110.683 13.175C111.333 14.5 111.358 14.9 111.358 16.15V17.4C111.358 19.725 111.208 19.9 110.083 20.075L109.233 20.2C109.033 20.35 109.033 20.925 109.233 21.075C110.708 21.025 111.958 21 113.158 21C114.358 21 115.583 21.025 117.208 21.075C117.383 20.925 117.383 20.35 117.208 20.2L116.208 20.075C115.083 19.925 114.933 19.725 114.933 17.4V15.65Z" fill="white"/>
</g>
<defs>
<filter id="filter0_d" x="0.499695" y="4.42505" width="125.097" height="41.7189" filterUnits="userSpaceOnUse" color-interpolation-filters="sRGB">
<feFlood flood-opacity="0" result="BackgroundImageFix"/>
<feColorMatrix in="SourceAlpha" type="matrix" values="0 0 0 0 0 0 0 0 0 0 0 0 0 0 0 0 0 0 127 0"/>
<feOffset dy="4"/>
<feGaussianBlur stdDeviation="2"/>
<feColorMatrix type="matrix" values="0 0 0 0 0 0 0 0 0 0 0 0 0 0 0 0 0 0 0.25 0"/>
<feBlend mode="normal" in2="BackgroundImageFix" result="effect1_dropShadow"/>
<feBlend mode="normal" in="SourceGraphic" in2="effect1_dropShadow" result="shape"/>
</filter>
</defs>
</svg>
